<svg width="1240" height="760" viewBox="0 0 1240 760" fill="none" xmlns="http://www.w3.org/2000/svg" role="img" aria-labelledby="title desc">
  <title id="title">1ヶ月間の推移グラフ</title>
  <desc id="desc">動画再生数、LP表示数、問い合わせ数の4月1日から4月30日までの推移。</desc>
  <defs>
    <linearGradient id="videoArea" x1="0" y1="118" x2="0" y2="604" gradientUnits="userSpaceOnUse">
      <stop stop-color="#0B1D76" stop-opacity="0.16"/>
      <stop offset="1" stop-color="#0B1D76" stop-opacity="0.02"/>
    </linearGradient>
    <linearGradient id="lpArea" x1="0" y1="118" x2="0" y2="604" gradientUnits="userSpaceOnUse">
      <stop stop-color="#1688C8" stop-opacity="0.12"/>
      <stop offset="1" stop-color="#1688C8" stop-opacity="0.01"/>
    </linearGradient>
    <filter id="softShadow" x="-8%" y="-8%" width="116%" height="116%">
      <feDropShadow dx="0" dy="12" stdDeviation="14" flood-color="#061739" flood-opacity="0.08"/>
    </filter>
  </defs>
  <style>
    .title { font: 700 30px 'Avenir Next', 'Helvetica Neue', Arial, sans-serif; fill: #061739; }
    .sub { font: 700 15px 'Avenir Next', 'Helvetica Neue', Arial, sans-serif; fill: #5F6C7D; }
    .axis { font: 700 15px 'Avenir Next', 'Helvetica Neue', Arial, sans-serif; fill: #667085; }
    .strong { fill: #061739; }
    .legend { font: 800 16px 'Avenir Next', 'Helvetica Neue', Arial, sans-serif; fill: #061739; }
    .tag { font: 800 14px 'Avenir Next', 'Helvetica Neue', Arial, sans-serif; fill: #ffffff; }
  </style>
  <rect x="1" y="1" width="1238" height="758" rx="8" fill="#FFFFFF" stroke="#DFE8EF"/>
  <g filter="url(#softShadow)">
    <rect x="34" y="34" width="1172" height="692" rx="8" fill="#FFFFFF"/>
  </g>
  <text x="64" y="78" class="title">1ヶ月間の推移グラフ</text>
  <text x="64" y="103" class="sub">AI動画施策による流入・表示・問い合わせの実測推移</text>

  <g transform="translate(730 58)">
    <circle cx="0" cy="0" r="6" fill="#0B1D76"/><text x="16" y="6" class="legend">動画再生数</text>
    <circle cx="154" cy="0" r="6" fill="#1688C8"/><text x="170" y="6" class="legend">LP表示数</text>
    <circle cx="304" cy="0" r="6" fill="#57C9D6"/><text x="320" y="6" class="legend">問い合わせ数</text>
  </g>

  <g>
    <line x1="96" y1="604.0" x2="1134" y2="604.0" stroke="#E6EEF5" stroke-width="1"/><text x="74" y="609.0" text-anchor="end" class="axis">0</text><line x1="96" y1="534.6" x2="1134" y2="534.6" stroke="#E6EEF5" stroke-width="1"/><text x="74" y="539.6" text-anchor="end" class="axis">200</text><line x1="96" y1="465.1" x2="1134" y2="465.1" stroke="#E6EEF5" stroke-width="1"/><text x="74" y="470.1" text-anchor="end" class="axis">400</text><line x1="96" y1="395.7" x2="1134" y2="395.7" stroke="#E6EEF5" stroke-width="1"/><text x="74" y="400.7" text-anchor="end" class="axis">600</text><line x1="96" y1="326.3" x2="1134" y2="326.3" stroke="#E6EEF5" stroke-width="1"/><text x="74" y="331.3" text-anchor="end" class="axis">800</text><line x1="96" y1="256.9" x2="1134" y2="256.9" stroke="#E6EEF5" stroke-width="1"/><text x="74" y="261.9" text-anchor="end" class="axis">1,000</text><line x1="96" y1="187.4" x2="1134" y2="187.4" stroke="#E6EEF5" stroke-width="1"/><text x="74" y="192.4" text-anchor="end" class="axis">1,200</text><line x1="96" y1="118.0" x2="1134" y2="118.0" stroke="#E6EEF5" stroke-width="1"/><text x="74" y="123.0" text-anchor="end" class="axis">1,400</text>
    <line x1="96" y1="118" x2="96" y2="604" stroke="#CCD8E3" stroke-width="1.4"/>
    <line x1="96" y1="604" x2="1134" y2="604" stroke="#CCD8E3" stroke-width="1.4"/>
    <text x="96.0" y="648" text-anchor="middle" class="axis strong">4/1</text><text x="275.0" y="648" text-anchor="middle" class="axis strong">4/6</text><text x="453.9" y="648" text-anchor="middle" class="axis strong">4/11</text><text x="632.9" y="648" text-anchor="middle" class="axis strong">4/16</text><text x="811.9" y="648" text-anchor="middle" class="axis strong">4/21</text><text x="990.8" y="648" text-anchor="middle" class="axis strong">4/26</text><text x="1134.0" y="648" text-anchor="middle" class="axis strong">4/30</text>
  </g>

  <polygon points="96.0,604.0 96.0,506.8 131.8,499.9 167.6,468.6 203.4,458.2 239.2,437.4 275.0,409.6 310.8,420.0 346.6,427.0 382.3,406.1 418.1,361.0 453.9,367.9 489.7,347.1 525.5,322.8 561.3,288.1 597.1,305.5 632.9,253.4 668.7,291.6 704.5,260.3 740.3,229.1 776.1,246.4 811.9,232.6 847.7,190.9 883.4,180.5 919.2,135.4 955.0,170.1 990.8,145.8 1026.6,190.9 1062.4,184.0 1098.2,135.4 1134.0,145.8 1134.0,604.0" fill="url(#videoArea)"/>
  <polygon points="96.0,604.0 96.0,562.3 131.8,562.3 167.6,561.6 203.4,561.0 239.2,551.9 275.0,551.9 310.8,551.2 346.6,550.2 382.3,548.5 418.1,531.1 453.9,534.6 489.7,527.6 525.5,520.7 561.3,506.8 597.1,520.7 632.9,499.9 668.7,510.3 704.5,506.8 740.3,489.4 776.1,489.4 811.9,479.0 847.7,486.0 883.4,479.0 919.2,477.3 955.0,458.2 990.8,468.6 1026.6,461.7 1062.4,466.9 1098.2,463.4 1134.0,458.2 1134.0,604.0" fill="url(#lpArea)"/>

  <polyline points="96.0,506.8 131.8,499.9 167.6,468.6 203.4,458.2 239.2,437.4 275.0,409.6 310.8,420.0 346.6,427.0 382.3,406.1 418.1,361.0 453.9,367.9 489.7,347.1 525.5,322.8 561.3,288.1 597.1,305.5 632.9,253.4 668.7,291.6 704.5,260.3 740.3,229.1 776.1,246.4 811.9,232.6 847.7,190.9 883.4,180.5 919.2,135.4 955.0,170.1 990.8,145.8 1026.6,190.9 1062.4,184.0 1098.2,135.4 1134.0,145.8" fill="none" stroke="#0B1D76" stroke-width="5" stroke-linecap="round" stroke-linejoin="round"/>
  <polyline points="96.0,562.3 131.8,562.3 167.6,561.6 203.4,561.0 239.2,551.9 275.0,551.9 310.8,551.2 346.6,550.2 382.3,548.5 418.1,531.1 453.9,534.6 489.7,527.6 525.5,520.7 561.3,506.8 597.1,520.7 632.9,499.9 668.7,510.3 704.5,506.8 740.3,489.4 776.1,489.4 811.9,479.0 847.7,486.0 883.4,479.0 919.2,477.3 955.0,458.2 990.8,468.6 1026.6,461.7 1062.4,466.9 1098.2,463.4 1134.0,458.2" fill="none" stroke="#1688C8" stroke-width="4" stroke-linecap="round" stroke-linejoin="round"/>
  <polyline points="96.0,604.0 131.8,604.0 167.6,603.7 203.4,603.7 239.2,603.3 275.0,603.3 310.8,603.0 346.6,602.6 382.3,601.2 418.1,597.8 453.9,597.1 489.7,596.4 525.5,595.7 561.3,593.6 597.1,595.7 632.9,591.9 668.7,590.1 704.5,589.1 740.3,586.6 776.1,583.9 811.9,580.4 847.7,577.6 883.4,573.5 919.2,570.0 955.0,560.6 990.8,563.7 1026.6,561.6 1062.4,563.0 1098.2,560.3 1134.0,559.6" fill="none" stroke="#57C9D6" stroke-width="4" stroke-linecap="round" stroke-linejoin="round"/>
  <circle cx="96.0" cy="506.8" r="5" fill="#0B1D76" stroke="#ffffff" stroke-width="3"/>
<circle cx="275.0" cy="409.6" r="5" fill="#0B1D76" stroke="#ffffff" stroke-width="3"/>
<circle cx="453.9" cy="367.9" r="5" fill="#0B1D76" stroke="#ffffff" stroke-width="3"/>
<circle cx="632.9" cy="253.4" r="5" fill="#0B1D76" stroke="#ffffff" stroke-width="3"/>
<circle cx="811.9" cy="232.6" r="5" fill="#0B1D76" stroke="#ffffff" stroke-width="3"/>
<circle cx="990.8" cy="145.8" r="5" fill="#0B1D76" stroke="#ffffff" stroke-width="3"/>
<circle cx="1134.0" cy="145.8" r="5" fill="#0B1D76" stroke="#ffffff" stroke-width="3"/>
  <circle cx="96.0" cy="562.3" r="4" fill="#1688C8" stroke="#ffffff" stroke-width="3"/>
<circle cx="275.0" cy="551.9" r="4" fill="#1688C8" stroke="#ffffff" stroke-width="3"/>
<circle cx="453.9" cy="534.6" r="4" fill="#1688C8" stroke="#ffffff" stroke-width="3"/>
<circle cx="632.9" cy="499.9" r="4" fill="#1688C8" stroke="#ffffff" stroke-width="3"/>
<circle cx="811.9" cy="479.0" r="4" fill="#1688C8" stroke="#ffffff" stroke-width="3"/>
<circle cx="990.8" cy="468.6" r="4" fill="#1688C8" stroke="#ffffff" stroke-width="3"/>
<circle cx="1134.0" cy="458.2" r="4" fill="#1688C8" stroke="#ffffff" stroke-width="3"/>
  <circle cx="96.0" cy="604.0" r="4" fill="#57C9D6" stroke="#ffffff" stroke-width="3"/>
<circle cx="275.0" cy="603.3" r="4" fill="#57C9D6" stroke="#ffffff" stroke-width="3"/>
<circle cx="453.9" cy="597.1" r="4" fill="#57C9D6" stroke="#ffffff" stroke-width="3"/>
<circle cx="632.9" cy="591.9" r="4" fill="#57C9D6" stroke="#ffffff" stroke-width="3"/>
<circle cx="811.9" cy="580.4" r="4" fill="#57C9D6" stroke="#ffffff" stroke-width="3"/>
<circle cx="990.8" cy="563.7" r="4" fill="#57C9D6" stroke="#ffffff" stroke-width="3"/>
<circle cx="1134.0" cy="559.6" r="4" fill="#57C9D6" stroke="#ffffff" stroke-width="3"/>

  <g transform="translate(1022.0 85.8)">
    <rect width="124" height="42" rx="21" fill="#0B1D76"/>
    <text x="62" y="27" text-anchor="middle" class="tag">1,320</text>
  </g>
  <g transform="translate(1028.0 406.2)">
    <rect width="108" height="38" rx="19" fill="#1688C8"/>
    <text x="54" y="25" text-anchor="middle" class="tag">420</text>
  </g>
  <g transform="translate(1034.0 571.6)">
    <rect width="104" height="38" rx="19" fill="#57C9D6"/>
    <text x="52" y="25" text-anchor="middle" class="tag">128</text>
  </g>

  <text x="64" y="704" class="sub">※ グラフ数値は元画像の実測推移をもとにした視認性重視の再作成データです。</text>
</svg>
